<?xml version="1.0" encoding="UTF-8" standalone="no"?>
<svg
   width="100.00994pt"
   height="149.95552pt"
   viewBox="0 0 100.00994 149.95551"
   version="1.1"
   id="svg6"
   sodipodi:docname="card_2.svg"
   inkscape:version="1.1 (c4e8f9ed74, 2021-05-24)"
   xmlns:inkscape="http://www.inkscape.org/namespaces/inkscape"
   xmlns:sodipodi="http://sodipodi.sourceforge.net/DTD/sodipodi-0.dtd"
   xmlns="http://www.w3.org/2000/svg"
   xmlns:svg="http://www.w3.org/2000/svg">
  <sodipodi:namedview
     id="namedview8"
     pagecolor="#505050"
     bordercolor="#ffffff"
     borderopacity="1"
     inkscape:pageshadow="0"
     inkscape:pageopacity="0"
     inkscape:pagecheckerboard="1"
     inkscape:document-units="pt"
     showgrid="false"
     inkscape:zoom="4"
     inkscape:cx="43.875"
     inkscape:cy="93.5"
     inkscape:window-width="1920"
     inkscape:window-height="1045"
     inkscape:window-x="0"
     inkscape:window-y="35"
     inkscape:window-maximized="1"
     inkscape:current-layer="svg6"
     inkscape:lockguides="false" />
  <defs
     id="defs2" />
  <g
     aria-label="2"
     transform="scale(1.0023333,0.99767213)"
     id="text35514"
     style="font-weight:bold;font-size:29.8363px;line-height:1.25;font-family:Cantarell;-inkscape-font-specification:'Cantarell Bold';fill:#ffffff;stroke-width:0.745909">
    <path
       d="m 11.099677,30.689062 h 13.903716 v -3.341665 h -8.324328 c 5.40037,-4.743972 7.638093,-8.115474 7.638093,-11.516812 0,-3.759374 -2.774776,-6.146278 -7.011531,-6.146278 -2.595758,0 -4.982662,0.865253 -6.77284,2.41674 l 1.014434,2.774776 c 1.640997,-1.223288 3.431175,-1.820014 4.982663,-1.820014 2.357067,0 3.819046,1.342633 3.819046,3.371502 0,2.774776 -2.864285,5.907587 -9.249253,11.60632 z"
       id="path12395" />
  </g>
  <g
     aria-label="2"
     transform="scale(-1.0023333,-0.99767213)"
     id="text35514-3"
     style="font-weight:bold;font-size:29.8363px;line-height:1.25;font-family:Cantarell;-inkscape-font-specification:'Cantarell Bold';fill:#ffffff;stroke-width:0.745909">
    <path
       d="m -88.292646,-119.42114 h 13.903716 v -3.34167 h -8.324327 c 5.40037,-4.74397 7.638092,-8.11547 7.638092,-11.51681 0,-3.75937 -2.774776,-6.14628 -7.01153,-6.14628 -2.595758,0 -4.982662,0.86525 -6.77284,2.41674 l 1.014434,2.77478 c 1.640996,-1.22329 3.431174,-1.82002 4.982662,-1.82002 2.357068,0 3.819046,1.34264 3.819046,3.37151 0,2.77477 -2.864284,5.90758 -9.249253,11.60632 z"
       id="path12392" />
  </g>
</svg>
