<?xml version="1.0" encoding="UTF-8" standalone="no"?>
<svg
   width="100.00994pt"
   height="149.95552pt"
   viewBox="0 0 100.00994 149.95551"
   version="1.1"
   id="svg6"
   sodipodi:docname="card_front.svg"
   inkscape:version="1.1 (c4e8f9ed74, 2021-05-24)"
   xmlns:inkscape="http://www.inkscape.org/namespaces/inkscape"
   xmlns:sodipodi="http://sodipodi.sourceforge.net/DTD/sodipodi-0.dtd"
   xmlns="http://www.w3.org/2000/svg"
   xmlns:svg="http://www.w3.org/2000/svg">
  <sodipodi:namedview
     id="namedview8"
     pagecolor="#505050"
     bordercolor="#ffffff"
     borderopacity="1"
     inkscape:pageshadow="0"
     inkscape:pageopacity="0"
     inkscape:pagecheckerboard="1"
     inkscape:document-units="pt"
     showgrid="false"
     inkscape:zoom="4"
     inkscape:cx="56.375"
     inkscape:cy="68"
     inkscape:window-width="1920"
     inkscape:window-height="1045"
     inkscape:window-x="0"
     inkscape:window-y="35"
     inkscape:window-maximized="1"
     inkscape:current-layer="svg6"
     inkscape:lockguides="false" />
  <defs
     id="defs2" />
  <path
     id="rect55268"
     style="fill:#ffffff;stroke-width:1.33333;fill-opacity:1"
     d="M 17.742188 9.0917969 C 12.98105 9.0917969 9.1484375 13.154121 9.1484375 18.201172 L 9.1484375 181.74023 C 9.1484375 186.78729 12.98105 190.84961 17.742188 190.84961 L 115.60352 190.84961 C 120.36465 190.84961 124.19922 186.78729 124.19922 181.74023 L 124.19922 18.201172 C 124.19922 13.154121 120.36465 9.0917969 115.60352 9.0917969 L 17.742188 9.0917969 z M 85.451172 29.449219 A 43.762122 75.2108 25.1827 0 1 102.13281 33.875 A 43.762122 75.2108 25.1827 0 1 103.21289 124.68359 A 43.762122 75.2108 25.1827 0 1 31.212891 166.06445 A 43.762122 75.2108 25.1827 0 1 30.132812 75.257812 A 43.762122 75.2108 25.1827 0 1 85.451172 29.449219 z "
     transform="scale(0.75)" />
</svg>
