<?xml version="1.0" encoding="UTF-8" standalone="no"?>
<svg
   width="100.00994pt"
   height="149.95552pt"
   viewBox="0 0 100.00994 149.95551"
   version="1.1"
   id="svg6"
   sodipodi:docname="card_3_modulate.svg"
   inkscape:version="1.1 (c4e8f9ed74, 2021-05-24)"
   xmlns:inkscape="http://www.inkscape.org/namespaces/inkscape"
   xmlns:sodipodi="http://sodipodi.sourceforge.net/DTD/sodipodi-0.dtd"
   xmlns="http://www.w3.org/2000/svg"
   xmlns:svg="http://www.w3.org/2000/svg">
  <g
     aria-label="3"
     transform="scale(1.0033127,0.99669823)"
     id="text50283"
     style="font-weight:bold;font-size:70.6899px;line-height:1.25;font-family:Cantarell;-inkscape-font-specification:'Cantarell Bold';fill:#ffffff;stroke-width:1.76724">
    <path
       d="m 48.556585,100.8966 c 12.017284,0 20.075933,-5.655196 20.075933,-14.279364 0,-6.220712 -4.241394,-10.956935 -10.886245,-12.158664 5.089673,-1.413798 8.270718,-5.513812 8.270718,-11.027624 0,-7.987959 -6.432781,-13.006943 -16.400057,-13.006943 -5.513813,0 -11.239695,1.555178 -15.975918,4.241395 l 2.050007,6.78623 c 4.382774,-2.050007 8.553478,-3.181045 12.087973,-3.181045 5.372433,0 9.048308,2.474146 9.048308,6.362091 0,4.312084 -4.382774,7.21037 -10.674175,7.21037 h -3.605185 v 7.13968 h 4.241394 c 7.634509,0 12.512113,2.898286 12.512113,7.56382 0,4.170704 -3.958635,6.503471 -10.391416,6.503471 -4.312084,0 -9.543137,-0.989659 -13.855221,-2.968976 l -2.120697,7.21037 c 5.018983,2.403457 10.179346,3.605189 15.622468,3.605189 z"
       id="path24258"
       style="fill:#ffffff" />
  </g>
  <sodipodi:namedview
     id="namedview8"
     pagecolor="#505050"
     bordercolor="#ffffff"
     borderopacity="1"
     inkscape:pageshadow="0"
     inkscape:pageopacity="0"
     inkscape:pagecheckerboard="1"
     inkscape:document-units="pt"
     showgrid="false"
     inkscape:zoom="4"
     inkscape:cx="43.75"
     inkscape:cy="93.5"
     inkscape:window-width="1920"
     inkscape:window-height="1045"
     inkscape:window-x="0"
     inkscape:window-y="35"
     inkscape:window-maximized="1"
     inkscape:current-layer="svg6"
     inkscape:lockguides="false" />
  <defs
     id="defs2" />
</svg>
