<?xml version="1.0" encoding="UTF-8" standalone="no"?>
<svg
   width="100.00994pt"
   height="149.95552pt"
   viewBox="0 0 100.00994 149.95551"
   version="1.1"
   id="svg6"
   sodipodi:docname="card_3.svg"
   inkscape:version="1.1 (c4e8f9ed74, 2021-05-24)"
   xmlns:inkscape="http://www.inkscape.org/namespaces/inkscape"
   xmlns:sodipodi="http://sodipodi.sourceforge.net/DTD/sodipodi-0.dtd"
   xmlns="http://www.w3.org/2000/svg"
   xmlns:svg="http://www.w3.org/2000/svg">
  <sodipodi:namedview
     id="namedview8"
     pagecolor="#505050"
     bordercolor="#ffffff"
     borderopacity="1"
     inkscape:pageshadow="0"
     inkscape:pageopacity="0"
     inkscape:pagecheckerboard="1"
     inkscape:document-units="pt"
     showgrid="false"
     inkscape:zoom="4"
     inkscape:cx="43.75"
     inkscape:cy="93.5"
     inkscape:window-width="1920"
     inkscape:window-height="1045"
     inkscape:window-x="0"
     inkscape:window-y="35"
     inkscape:window-maximized="1"
     inkscape:current-layer="svg6"
     inkscape:lockguides="false" />
  <defs
     id="defs2" />
  <g
     aria-label="3"
     transform="scale(1.0023333,0.99767213)"
     id="text35514"
     style="font-weight:bold;font-size:29.8363px;line-height:1.25;font-family:Cantarell;-inkscape-font-specification:'Cantarell Bold';fill:#ffffff;stroke-width:0.745909">
    <path
       d="m 16.999219,31.363299 c 5.072171,0 8.473509,-2.386904 8.473509,-6.026933 0,-2.625594 -1.790178,-4.624626 -4.59479,-5.131843 2.148214,-0.596726 3.490847,-2.327232 3.490847,-4.654463 0,-3.371502 -2.715103,-5.489879 -6.922022,-5.489879 -2.327231,0 -4.743971,0.656398 -6.743003,1.790178 l 0.865252,2.864284 c 1.849851,-0.865252 3.610193,-1.342633 5.102008,-1.342633 2.267558,0 3.819046,1.04427 3.819046,2.685267 0,1.820014 -1.849851,3.043302 -4.505281,3.043302 h -1.521652 v 3.013467 h 1.790178 c 3.222321,0 5.281026,1.223288 5.281026,3.192484 0,1.760341 -1.670833,2.744939 -4.385937,2.744939 -1.820014,0 -4.0279,-0.417708 -5.847914,-1.253124 l -0.895089,3.043302 c 2.118377,1.014435 4.296427,1.521652 6.593822,1.521652 z"
       id="path24264" />
  </g>
  <g
     aria-label="3"
     transform="scale(-1.0023333,-0.99767213)"
     id="text35514-3"
     style="font-weight:bold;font-size:29.8363px;line-height:1.25;font-family:Cantarell;-inkscape-font-specification:'Cantarell Bold';fill:#ffffff;stroke-width:0.745909">
    <path
       d="m -82.360917,-118.29355 c 5.072171,0 8.473509,-2.3869 8.473509,-6.02693 0,-2.6256 -1.790178,-4.62463 -4.59479,-5.13184 2.148213,-0.59673 3.490847,-2.32724 3.490847,-4.65447 0,-3.3715 -2.715103,-5.48988 -6.922022,-5.48988 -2.327231,0 -4.743971,0.6564 -6.743003,1.79018 l 0.865252,2.86429 c 1.849851,-0.86526 3.610193,-1.34264 5.102008,-1.34264 2.267558,0 3.819046,1.04427 3.819046,2.68527 0,1.82001 -1.849851,3.0433 -4.505281,3.0433 h -1.521652 v 3.01347 h 1.790178 c 3.222321,0 5.281025,1.22329 5.281025,3.19248 0,1.76034 -1.670832,2.74494 -4.385936,2.74494 -1.820014,0 -4.0279,-0.41771 -5.847914,-1.25312 l -0.895089,3.0433 c 2.118377,1.01443 4.296427,1.52165 6.593822,1.52165 z"
       id="path24261" />
  </g>
</svg>
