<?xml version="1.0" encoding="UTF-8" standalone="no"?>
<svg
   width="100.00994pt"
   height="149.95552pt"
   viewBox="0 0 100.00994 149.95551"
   version="1.1"
   id="svg6"
   sodipodi:docname="card_1.svg"
   inkscape:version="1.1 (c4e8f9ed74, 2021-05-24)"
   xmlns:inkscape="http://www.inkscape.org/namespaces/inkscape"
   xmlns:sodipodi="http://sodipodi.sourceforge.net/DTD/sodipodi-0.dtd"
   xmlns="http://www.w3.org/2000/svg"
   xmlns:svg="http://www.w3.org/2000/svg">
  <sodipodi:namedview
     id="namedview8"
     pagecolor="#505050"
     bordercolor="#ffffff"
     borderopacity="1"
     inkscape:pageshadow="0"
     inkscape:pageopacity="0"
     inkscape:pagecheckerboard="1"
     inkscape:document-units="pt"
     showgrid="false"
     inkscape:zoom="4"
     inkscape:cx="56.375"
     inkscape:cy="93.5"
     inkscape:window-width="1920"
     inkscape:window-height="1045"
     inkscape:window-x="0"
     inkscape:window-y="35"
     inkscape:window-maximized="1"
     inkscape:current-layer="svg6"
     inkscape:lockguides="false" />
  <defs
     id="defs2" />
  <g
     aria-label="0"
     transform="scale(1.0023333,0.99767213)"
     id="text35514"
     style="font-weight:bold;font-size:29.8363px;line-height:1.25;font-family:Cantarell;-inkscape-font-specification:'Cantarell Bold';fill:#ffffff;stroke-width:0.745909">
    <path
       d="m 17.756527,30.423615 c 4.952825,0 8.175146,-4.177082 8.175146,-10.770904 0,-6.414805 -3.162648,-10.5322144 -7.996129,-10.5322144 -4.982662,0 -8.2049821,4.2069184 -8.2049821,10.7709044 0,6.414804 3.1328111,10.532214 8.0259651,10.532214 z m 0.149181,-3.281993 c -2.595758,0 -4.236755,-2.894121 -4.236755,-7.488911 0,-4.445609 1.611161,-7.250221 4.11741,-7.250221 2.536085,0 4.206918,2.923957 4.206918,7.488911 0,4.445609 -1.61116,7.250221 -4.087573,7.250221 z"
       id="path57140" />
  </g>
  <g
     aria-label="0"
     transform="scale(1.0023333,0.99767213)"
     id="text35514-3"
     style="font-weight:bold;font-size:29.8363px;line-height:1.25;font-family:Cantarell;-inkscape-font-specification:'Cantarell Bold';fill:#ffffff;stroke-width:0.745909">
    <path
       d="m 81.986787,140.72431 c 4.952826,0 8.175147,-4.17708 8.175147,-10.7709 0,-6.41481 -3.162648,-10.53222 -7.996129,-10.53222 -4.982662,0 -8.204982,4.20692 -8.204982,10.77091 0,6.4148 3.132811,10.53221 8.025964,10.53221 z m 0.149182,-3.28199 c -2.595758,0 -4.236755,-2.89412 -4.236755,-7.48891 0,-4.44561 1.61116,-7.25022 4.11741,-7.25022 2.536085,0 4.206918,2.92395 4.206918,7.48891 0,4.44561 -1.61116,7.25022 -4.087573,7.25022 z"
       id="path57143" />
  </g>
</svg>
